<svg width="1030" height="147" viewBox="0 0 1030 147" fill="none" xmlns="http://www.w3.org/2000/svg">
<path d="M106.605 77.4219V128.008C104.978 130.417 102.178 133.086 98.207 136.016C94.2357 138.945 88.8971 141.517 82.1914 143.73C75.4857 145.879 67.1523 146.953 57.1914 146.953C48.8581 146.953 41.2083 145.456 34.2422 142.461C27.276 139.466 21.2214 135.137 16.0781 129.473C11 123.743 7.0612 116.875 4.26172 108.867C1.52734 100.859 0.160156 91.875 0.160156 81.9141V64.7266C0.160156 54.9609 1.42969 46.1719 3.96875 38.3594C6.50781 30.4818 10.1862 23.7435 15.0039 18.1445C19.8216 12.5456 25.6159 8.28125 32.3867 5.35156C39.2227 2.35677 46.8724 0.859375 55.3359 0.859375C65.8828 0.859375 74.7695 2.68229 81.9961 6.32812C89.2227 9.97396 94.8542 14.987 98.8906 21.3672C102.992 27.6823 105.531 34.8438 106.508 42.8516H94.4961C93.5846 37.1875 91.6966 31.9792 88.832 27.2266C85.9674 22.4089 81.8008 18.5352 76.332 15.6055C70.9284 12.6758 63.9297 11.2109 55.3359 11.2109C48.4349 11.2109 42.2826 12.4805 36.8789 15.0195C31.5404 17.5586 27.0482 21.1719 23.4023 25.8594C19.7565 30.5469 16.9896 36.1784 15.1016 42.7539C13.2135 49.2643 12.2695 56.5234 12.2695 64.5312V81.9141C12.2695 90.2474 13.3112 97.7669 15.3945 104.473C17.543 111.178 20.6029 116.94 24.5742 121.758C28.5456 126.576 33.2982 130.286 38.832 132.891C44.3659 135.43 50.5182 136.699 57.2891 136.699C64.5156 136.699 70.668 136.016 75.7461 134.648C80.8242 133.281 84.8932 131.654 87.9531 129.766C91.0781 127.812 93.3242 125.99 94.6914 124.297V87.6758H56.5078V77.4219H106.605ZM155.629 2.8125V145H143.617V2.8125H155.629ZM296.84 77.4219V128.008C295.212 130.417 292.413 133.086 288.441 136.016C284.47 138.945 279.132 141.517 272.426 143.73C265.72 145.879 257.387 146.953 247.426 146.953C239.092 146.953 231.443 145.456 224.477 142.461C217.51 139.466 211.456 135.137 206.312 129.473C201.234 123.743 197.296 116.875 194.496 108.867C191.762 100.859 190.395 91.875 190.395 81.9141V64.7266C190.395 54.9609 191.664 46.1719 194.203 38.3594C196.742 30.4818 200.421 23.7435 205.238 18.1445C210.056 12.5456 215.85 8.28125 222.621 5.35156C229.457 2.35677 237.107 0.859375 245.57 0.859375C256.117 0.859375 265.004 2.68229 272.23 6.32812C279.457 9.97396 285.089 14.987 289.125 21.3672C293.227 27.6823 295.766 34.8438 296.742 42.8516H284.73C283.819 37.1875 281.931 31.9792 279.066 27.2266C276.202 22.4089 272.035 18.5352 266.566 15.6055C261.163 12.6758 254.164 11.2109 245.57 11.2109C238.669 11.2109 232.517 12.4805 227.113 15.0195C221.775 17.5586 217.283 21.1719 213.637 25.8594C209.991 30.5469 207.224 36.1784 205.336 42.7539C203.448 49.2643 202.504 56.5234 202.504 64.5312V81.9141C202.504 90.2474 203.546 97.7669 205.629 104.473C207.777 111.178 210.837 116.94 214.809 121.758C218.78 126.576 223.533 130.286 229.066 132.891C234.6 135.43 240.753 136.699 247.523 136.699C254.75 136.699 260.902 136.016 265.98 134.648C271.059 133.281 275.128 131.654 278.188 129.766C281.312 127.812 283.559 125.99 284.926 124.297V87.6758H246.742V77.4219H296.84ZM392.055 2.8125V145H380.043V2.8125H392.055ZM458.266 68.2422V78.5938H388.051V68.2422H458.266ZM468.129 2.8125V13.1641H388.051V2.8125H468.129ZM492.25 2.8125H538.441C548.272 2.8125 556.801 4.40755 564.027 7.59766C571.254 10.7878 576.82 15.5078 580.727 21.7578C584.698 27.9427 586.684 35.5599 586.684 44.6094C586.684 51.3151 585.251 57.4023 582.387 62.8711C579.587 68.3398 575.714 72.9297 570.766 76.6406C565.818 80.2865 560.089 82.793 553.578 84.1602L549.379 85.7227H500.062L499.867 75.4688H541.176C548.598 75.4688 554.783 74.0365 559.73 71.1719C564.678 68.3073 568.389 64.5312 570.863 59.8438C573.402 55.0911 574.672 50.013 574.672 44.6094C574.672 38.1641 573.272 32.5977 570.473 27.9102C567.738 23.1576 563.669 19.5117 558.266 16.9727C552.862 14.4336 546.254 13.1641 538.441 13.1641H504.262V145H492.25V2.8125ZM580.043 145L543.227 81.4258L556.117 81.3281L592.836 143.73V145H580.043ZM634.34 2.8125V145H622.328V2.8125H634.34ZM761.391 134.746V145H681.41V134.746H761.391ZM685.023 2.8125V145H673.012V2.8125H685.023ZM751.43 66.582V76.8359H681.41V66.582H751.43ZM760.902 2.8125V13.1641H681.41V2.8125H760.902ZM892.738 2.8125V145H880.629L798.891 23.5156V145H786.879V2.8125H798.891L880.824 124.297V2.8125H892.738ZM967.934 145H935.707L935.902 134.746H967.934C978.155 134.746 986.944 132.467 994.301 127.91C1001.72 123.288 1007.45 116.908 1011.49 108.77C1015.52 100.632 1017.54 91.1914 1017.54 80.4492V67.168C1017.54 58.9648 1016.37 51.543 1014.03 44.9023C1011.75 38.2617 1008.46 32.5977 1004.16 27.9102C999.867 23.1576 994.724 19.5117 988.734 16.9727C982.81 14.4336 976.169 13.1641 968.812 13.1641H935.121V2.8125H968.812C977.667 2.8125 985.772 4.34245 993.129 7.40234C1000.55 10.3971 1006.96 14.7591 1012.37 20.4883C1017.84 26.1523 1022.04 32.9557 1024.96 40.8984C1027.96 48.8411 1029.46 57.6953 1029.46 67.4609V80.4492C1029.46 90.2148 1027.96 99.069 1024.96 107.012C1022.04 114.954 1017.84 121.758 1012.37 127.422C1006.9 133.086 1000.42 137.448 992.934 140.508C985.447 143.503 977.113 145 967.934 145ZM941.078 2.8125V145H929.066V2.8125H941.078Z" fill="white"/>
</svg>
